<mxfile host="Electron" modified="2024-09-08T20:27:05.291Z" agent="Mozilla/5.0 (Windows NT 10.0; Win64; x64) AppleWebKit/537.36 (KHTML, like Gecko) draw.io/24.4.0 Chrome/120.0.6099.109 Electron/28.1.0 Safari/537.36" etag="GZnhfoh4lRzhhc0zCixy" version="24.4.0" type="device">
  <diagram name="PÃ¡gina-1" id="-opSID8gGJIeC7Rtg5Zl">
    <mxGraphModel dx="862" dy="582" grid="1" gridSize="10" guides="1" tooltips="1" connect="1" arrows="1" fold="1" page="1" pageScale="1" pageWidth="827" pageHeight="1169" math="0" shadow="0">
      <root>
        <mxCell id="0" />
        <mxCell id="1" parent="0" />
        <mxCell id="lw9m9KT4ceEw9vlF5foU-11" value="" style="rounded=0;whiteSpace=wrap;html=1;fillColor=none;" vertex="1" parent="1">
          <mxGeometry x="624" y="150" width="180" height="330" as="geometry" />
        </mxCell>
        <mxCell id="lw9m9KT4ceEw9vlF5foU-1" value="The following diagram represents the architecture of the API to process and perform operations on images" style="text;html=1;align=center;verticalAlign=middle;whiteSpace=wrap;rounded=0;" vertex="1" parent="1">
          <mxGeometry x="194" y="50" width="330" height="90" as="geometry" />
        </mxCell>
        <mxCell id="lw9m9KT4ceEw9vlF5foU-4" value="" style="rounded=1;whiteSpace=wrap;html=1;" vertex="1" parent="1">
          <mxGeometry x="24" y="270" width="120" height="130" as="geometry" />
        </mxCell>
        <mxCell id="lw9m9KT4ceEw9vlF5foU-5" value="&lt;font style=&quot;font-size: 14px;&quot;&gt;Client&lt;/font&gt;" style="text;html=1;align=center;verticalAlign=middle;whiteSpace=wrap;rounded=0;strokeWidth=3;" vertex="1" parent="1">
          <mxGeometry x="44" y="210" width="60" height="30" as="geometry" />
        </mxCell>
        <mxCell id="lw9m9KT4ceEw9vlF5foU-6" value="" style="rounded=1;whiteSpace=wrap;html=1;" vertex="1" parent="1">
          <mxGeometry x="374" y="260" width="120" height="130" as="geometry" />
        </mxCell>
        <mxCell id="lw9m9KT4ceEw9vlF5foU-7" value="Image processing operation 2" style="rounded=1;whiteSpace=wrap;html=1;" vertex="1" parent="1">
          <mxGeometry x="664" y="190" width="100" height="60" as="geometry" />
        </mxCell>
        <mxCell id="lw9m9KT4ceEw9vlF5foU-8" value="Image processing operation 1" style="rounded=1;whiteSpace=wrap;html=1;" vertex="1" parent="1">
          <mxGeometry x="664" y="290" width="100" height="60" as="geometry" />
        </mxCell>
        <mxCell id="lw9m9KT4ceEw9vlF5foU-9" value="Image processing operation 3" style="rounded=1;whiteSpace=wrap;html=1;" vertex="1" parent="1">
          <mxGeometry x="664" y="380" width="100" height="60" as="geometry" />
        </mxCell>
        <mxCell id="lw9m9KT4ceEw9vlF5foU-10" value="&lt;font style=&quot;font-size: 14px;&quot;&gt;API&lt;/font&gt;" style="text;html=1;align=center;verticalAlign=middle;whiteSpace=wrap;rounded=0;strokeWidth=3;" vertex="1" parent="1">
          <mxGeometry x="404" y="200" width="60" height="30" as="geometry" />
        </mxCell>
        <mxCell id="lw9m9KT4ceEw9vlF5foU-12" value="&lt;font style=&quot;font-size: 14px;&quot;&gt;Image Processing Lib&lt;/font&gt;" style="text;html=1;align=center;verticalAlign=middle;whiteSpace=wrap;rounded=0;strokeWidth=3;" vertex="1" parent="1">
          <mxGeometry x="654" y="80" width="100" height="60" as="geometry" />
        </mxCell>
        <mxCell id="lw9m9KT4ceEw9vlF5foU-14" value="" style="endArrow=classic;startArrow=classic;html=1;rounded=0;exitX=0.983;exitY=0.446;exitDx=0;exitDy=0;exitPerimeter=0;entryX=0;entryY=0.5;entryDx=0;entryDy=0;" edge="1" parent="1" source="lw9m9KT4ceEw9vlF5foU-4" target="lw9m9KT4ceEw9vlF5foU-6">
          <mxGeometry width="50" height="50" relative="1" as="geometry">
            <mxPoint x="374" y="310" as="sourcePoint" />
            <mxPoint x="424" y="260" as="targetPoint" />
          </mxGeometry>
        </mxCell>
        <mxCell id="lw9m9KT4ceEw9vlF5foU-15" value="" style="endArrow=classic;startArrow=classic;html=1;rounded=0;entryX=0.006;entryY=0.533;entryDx=0;entryDy=0;entryPerimeter=0;exitX=1;exitY=0.5;exitDx=0;exitDy=0;" edge="1" parent="1" source="lw9m9KT4ceEw9vlF5foU-6" target="lw9m9KT4ceEw9vlF5foU-11">
          <mxGeometry width="50" height="50" relative="1" as="geometry">
            <mxPoint x="484" y="250" as="sourcePoint" />
            <mxPoint x="534" y="200" as="targetPoint" />
          </mxGeometry>
        </mxCell>
        <mxCell id="lw9m9KT4ceEw9vlF5foU-17" value="Endpoint op 1" style="text;html=1;align=center;verticalAlign=middle;whiteSpace=wrap;rounded=0;" vertex="1" parent="1">
          <mxGeometry x="404" y="270" width="60" height="30" as="geometry" />
        </mxCell>
        <mxCell id="lw9m9KT4ceEw9vlF5foU-18" value="Endpoint op 2" style="text;html=1;align=center;verticalAlign=middle;whiteSpace=wrap;rounded=0;" vertex="1" parent="1">
          <mxGeometry x="404" y="310" width="60" height="30" as="geometry" />
        </mxCell>
        <mxCell id="lw9m9KT4ceEw9vlF5foU-19" value="Endpoint op 3" style="text;html=1;align=center;verticalAlign=middle;whiteSpace=wrap;rounded=0;" vertex="1" parent="1">
          <mxGeometry x="404" y="350" width="60" height="30" as="geometry" />
        </mxCell>
        <mxCell id="lw9m9KT4ceEw9vlF5foU-20" value="This diagram does not contemplate asyncronous handling, concurrency, server handling and authorization" style="text;html=1;align=center;verticalAlign=middle;whiteSpace=wrap;rounded=0;" vertex="1" parent="1">
          <mxGeometry x="249" y="470" width="330" height="90" as="geometry" />
        </mxCell>
      </root>
    </mxGraphModel>
  </diagram>
</mxfile>
